<svg xmlns="http://www.w3.org/2000/svg" xmlns:xlink="http://www.w3.org/1999/xlink" width="500" zoomAndPan="magnify" viewBox="0 0 375 374.999991" height="500" preserveAspectRatio="xMidYMid meet" version="1.0"><path fill="#000000" d="M 158.402344 146.160156 C 154.65625 144.621094 150.398438 145.246094 147.8125 147.746094 C 146.917969 148.59375 146.296875 149.574219 145.761719 150.421875 C 145.558594 150.734375 145.402344 150.890625 145.246094 151.046875 C 144.601562 151.734375 144.019531 152.449219 143.664062 154.257812 C 143.484375 155.214844 143.863281 156.171875 144.644531 156.730469 C 148.414062 159.40625 151.601562 160.722656 154.367188 160.722656 C 154.589844 160.722656 154.8125 160.722656 155.035156 160.699219 L 155.863281 160.632812 C 158.960938 160.410156 162.796875 160.144531 165.472656 157.644531 C 165.894531 157.242188 166.164062 156.730469 166.230469 156.152344 C 166.878906 151.066406 161.371094 147.386719 158.382812 146.160156 Z M 156.484375 154.945312 C 156.21875 155.347656 155.863281 155.257812 155.550781 155.082031 C 155.171875 154.878906 154.8125 154.613281 154.457031 154.277344 C 154.234375 154.054688 153.988281 153.789062 153.855469 153.339844 C 153.722656 152.894531 153.742188 152.203125 153.945312 151.914062 C 154.792969 151.960938 155.75 152.515625 156.308594 153.675781 C 156.574219 154.210938 156.484375 154.96875 156.484375 154.96875 Z M 149.90625 153.03125 C 150.132812 152.671875 150.355469 152.316406 150.597656 152.003906 C 150.597656 152.003906 150.597656 152.003906 150.597656 152.046875 C 150.398438 153.050781 150.6875 154.101562 151.269531 154.945312 C 150.6875 154.679688 150.042969 154.34375 149.304688 153.898438 C 149.484375 153.675781 149.707031 153.386719 149.929688 153.03125 Z M 159.40625 155.257812 C 159.539062 155.082031 159.652344 154.902344 159.742188 154.703125 C 160.03125 153.988281 159.921875 153.253906 159.585938 152.5625 C 160.367188 153.230469 160.992188 153.964844 161.257812 154.65625 C 160.722656 154.925781 160.074219 155.101562 159.386719 155.257812 Z M 159.40625 155.257812 " fill-opacity="1" fill-rule="nonzero"/><path fill="#000000" d="M 233.484375 152.292969 C 232.703125 150.6875 232.414062 150.152344 231.1875 148.546875 C 229.222656 146.003906 226.660156 144.445312 223.9375 144.15625 C 220.015625 143.707031 214.996094 145.847656 212.410156 148.992188 C 210.695312 151.113281 210.113281 153.566406 210.828125 155.929688 C 211.09375 157.3125 212.277344 159.027344 216.113281 159.921875 C 217.671875 160.300781 219.589844 160.5 221.597656 160.5 C 226.347656 160.5 231.585938 159.273438 233.882812 155.839844 C 234.375 155.101562 234.441406 154.167969 234.039062 153.386719 L 233.503906 152.292969 Z M 221.242188 151.738281 C 221.976562 151.15625 222.867188 150.957031 222.867188 150.957031 C 222.980469 150.867188 223.09375 150.777344 223.203125 150.800781 C 223.425781 150.84375 223.558594 151.269531 223.539062 151.648438 C 223.539062 152.027344 223.382812 152.359375 223.25 152.652344 C 222.625 153.898438 221.640625 154.546875 220.707031 154.324219 C 220.617188 153.878906 220.503906 153.429688 220.550781 152.960938 C 220.59375 152.496094 221.019531 151.890625 221.21875 151.738281 Z M 215.53125 154.546875 C 215.421875 154.210938 215.21875 153.320312 216.222656 152.09375 C 216.402344 151.871094 216.625 151.648438 216.847656 151.445312 L 216.847656 152.539062 C 216.78125 153.566406 217.25 154.523438 217.941406 155.28125 C 216.78125 155.082031 215.910156 154.792969 215.53125 154.546875 Z M 226.347656 155.015625 C 227.082031 154.277344 227.550781 153.363281 227.484375 152.316406 C 227.484375 152.046875 227.394531 151.804688 227.304688 151.582031 C 228.175781 152.695312 228.355469 153.007812 228.867188 154.011719 C 228.242188 154.414062 227.375 154.746094 226.371094 155.015625 Z M 226.347656 155.015625 " fill-opacity="1" fill-rule="nonzero"/><path fill="#000000" d="M 292.976562 117.730469 C 291.703125 109.324219 290.144531 98.867188 284.523438 91.152344 C 280.464844 85.597656 274.9375 82.140625 269.539062 79.222656 C 265.90625 77.257812 261.957031 75.339844 257.699219 74.628906 C 247.039062 72.800781 235.46875 78.375 225.054688 90.28125 C 215.734375 88.808594 205.675781 90.125 195.820312 91.441406 C 189.199219 92.332031 182.285156 93.269531 175.996094 93.226562 C 172.875 93.226562 169.910156 93.203125 167.210938 92.332031 L 166.878906 92.222656 C 164.582031 91.484375 161.101562 90.347656 155.816406 90.949219 C 154.210938 91.128906 152.40625 91.484375 150.53125 91.976562 C 148.835938 89.457031 145.695312 89.078125 143.152344 88.808594 C 142.371094 88.71875 141.566406 88.675781 140.742188 88.632812 C 138.980469 88.542969 137.332031 88.453125 136.015625 87.851562 C 134.902344 87.339844 133.875 86.378906 132.804688 85.375 C 132.246094 84.839844 131.667969 84.328125 131.066406 83.835938 C 125.046875 78.910156 115.902344 77.75 107.785156 80.9375 C 101.183594 83.503906 95.140625 88.765625 90.304688 96.101562 C 82.476562 108.054688 78.464844 126.496094 87.160156 140.855469 C 87.605469 141.613281 88.429688 142.035156 89.253906 142.035156 C 89.566406 142.035156 89.878906 141.96875 90.191406 141.859375 C 94.09375 140.230469 99.558594 136.394531 102.234375 131.914062 C 105.957031 136.082031 111.175781 139.25 116.816406 140.519531 C 116.816406 140.519531 116.863281 140.519531 116.863281 140.519531 C 116.882812 140.722656 116.929688 140.945312 116.949219 141.167969 C 117.550781 144.980469 118.109375 148.570312 116.863281 151.625 C 116.171875 153.320312 111.21875 167.1875 112.199219 171.851562 C 114.410156 182.242188 116.839844 190.046875 119.671875 199.097656 C 120.742188 202.53125 121.878906 206.121094 123.039062 210.046875 C 124.910156 216.359375 129.882812 221.753906 134.699219 226.949219 C 139.359375 231.988281 143.777344 236.761719 145.179688 241.957031 C 146.609375 247.175781 149.105469 250.320312 152.605469 251.277344 C 153.34375 251.476562 154.121094 251.589844 154.902344 251.589844 C 155.503906 251.589844 156.152344 251.5 156.796875 251.390625 C 156.84375 251.390625 156.863281 251.433594 156.910156 251.433594 C 159.71875 252.011719 160.722656 252.617188 161.324219 252.972656 C 162.148438 253.460938 162.820312 253.6875 163.488281 253.6875 C 164.601562 253.6875 165.738281 253.0625 167.679688 252.011719 L 168.503906 251.566406 C 176.824219 247.085938 180.277344 247.976562 183.957031 248.9375 C 185.785156 249.402344 187.835938 249.984375 190.378906 249.851562 C 192.410156 249.761719 194.4375 249.226562 196.378906 248.714844 C 200.59375 247.597656 204.226562 246.640625 207.929688 249.804688 C 213.613281 254.6875 221.105469 250.652344 224.296875 248.914062 L 224.742188 248.667969 C 225.054688 248.488281 225.320312 248.265625 225.523438 248 C 230.207031 245.414062 234.019531 239.390625 237.273438 233.214844 C 239.035156 229.871094 241.042969 227.910156 243.363281 225.65625 C 246.039062 223.046875 249.070312 220.105469 252.390625 214.507812 C 257.609375 205.765625 269.851562 178.339844 263.785156 156.84375 C 263.476562 155.726562 262.917969 154.390625 262.335938 152.960938 C 261.46875 150.84375 260.265625 147.96875 260.308594 146.628906 C 260.53125 140.675781 260.398438 135.503906 259.996094 130.953125 C 263.609375 130.550781 267.175781 129.503906 270.386719 127.808594 C 272.082031 126.917969 274.46875 125.402344 275.425781 122.726562 C 275.515625 122.503906 275.539062 122.28125 275.605469 122.058594 C 278.460938 124.042969 281.558594 124.53125 284.078125 124.53125 C 285.574219 124.53125 286.84375 124.375 287.734375 124.242188 L 288.492188 124.152344 C 289.296875 124.0625 290.945312 123.886719 292.105469 122.457031 C 293.398438 120.832031 293.085938 118.734375 292.953125 117.730469 Z M 98.910156 127.296875 C 98.351562 130.285156 94.25 134.144531 90.28125 136.351562 C 84.148438 124.128906 87.785156 108.921875 94.429688 98.820312 C 97.417969 94.296875 102.457031 88.296875 109.59375 85.53125 C 116.101562 82.988281 123.304688 83.835938 127.988281 87.671875 C 128.5 88.097656 128.992188 88.5625 129.480469 89.011719 C 130.730469 90.167969 132.15625 91.507812 134.007812 92.355469 C 136.195312 93.359375 138.492188 93.46875 140.542969 93.582031 C 141.257812 93.625 141.96875 93.648438 142.863281 93.761719 C 143.507812 93.828125 144.042969 93.894531 144.488281 93.960938 C 137.398438 96.613281 130.105469 100.695312 126.003906 105.085938 L 123.820312 97.839844 C 123.460938 96.679688 122.992188 95.097656 121.855469 93.828125 C 119.136719 90.792969 114.699219 91.328125 112.558594 91.597656 C 110.527344 91.84375 108.210938 92.132812 106.046875 93.113281 C 101.164062 95.34375 98.664062 100.269531 97.4375 104.015625 C 94.988281 111.507812 95.386719 119.648438 98.53125 126.382812 C 98.664062 126.671875 98.84375 126.941406 99 127.230469 C 99 127.273438 98.957031 127.296875 98.957031 127.320312 Z M 102.925781 124.265625 C 100.292969 118.667969 99.980469 111.84375 102.054688 105.535156 C 102.992188 102.722656 104.777344 99.042969 108.03125 97.550781 C 109.523438 96.882812 111.355469 96.660156 113.113281 96.4375 C 115.121094 96.191406 117.285156 96.078125 118.15625 97.058594 C 118.578125 97.527344 118.847656 98.441406 119.089844 99.222656 L 122.367188 110.058594 C 118.132812 117.53125 115.992188 127.875 116.304688 135.234375 C 110.507812 133.429688 105.265625 129.191406 102.925781 124.242188 Z M 195.175781 243.964844 C 193.414062 244.433594 191.738281 244.878906 190.222656 244.945312 C 188.441406 245.035156 186.945312 244.632812 185.25 244.1875 C 181.035156 243.070312 176.265625 241.824219 166.230469 247.242188 L 165.382812 247.6875 C 164.691406 248.066406 164.046875 248.402344 163.644531 248.601562 C 163.554688 248.558594 163.441406 248.488281 163.355469 248.421875 C 165.070312 247.261719 166.832031 245.8125 168.707031 244.03125 C 170.78125 242.023438 172.609375 239.570312 174.546875 236.960938 C 178.875 231.140625 182.976562 225.632812 189.308594 225.632812 C 190.738281 225.632812 194.414062 229.671875 197.113281 232.636719 C 201.617188 237.585938 207.082031 243.5625 213.90625 247.152344 C 212.902344 247.0625 211.964844 246.75 211.164062 246.058594 C 205.519531 241.199219 199.769531 242.714844 195.152344 243.941406 Z M 185.875 203.648438 C 187.011719 203.445312 189.667969 202.421875 189.667969 197.605469 C 189.667969 196.222656 188.753906 194.484375 187.414062 193.277344 C 186.054688 192.050781 184.335938 191.496094 182.640625 191.695312 C 179.5 192.050781 178.539062 194.414062 177.9375 195.820312 C 177.601562 196.644531 177.402344 197.089844 176.957031 197.316406 C 176.890625 197.316406 176.824219 197.316406 176.753906 197.316406 C 175.417969 191.628906 179.296875 187.214844 181.394531 186.230469 C 182.375 185.765625 184.671875 185.628906 186.210938 185.542969 C 186.855469 185.496094 187.457031 185.453125 187.972656 185.40625 C 191.359375 185.074219 192.429688 185.207031 195.953125 185.785156 C 198.765625 186.253906 202.375 189.621094 202.578125 192.007812 C 202.890625 195.417969 202.398438 195.976562 201.953125 196.511719 C 201.929688 196.554688 201.886719 196.578125 201.863281 196.625 C 201.683594 196.355469 201.484375 195.976562 201.351562 195.710938 C 200.546875 194.191406 198.851562 191.070312 194.726562 191.984375 C 192.65625 192.453125 191.117188 193.859375 190.492188 195.84375 C 189.800781 198.050781 190.335938 200.925781 191.695312 202.375 C 192.296875 203.023438 192.964844 203.445312 193.703125 203.738281 C 191.808594 204.652344 189.957031 205.097656 188.195312 205.050781 C 186.476562 205.007812 184.761719 204.515625 183.042969 203.558594 C 184.226562 203.78125 185.140625 203.847656 185.898438 203.691406 Z M 182.195312 198.316406 C 182.308594 198.09375 182.375 197.894531 182.464844 197.695312 C 182.621094 197.335938 182.863281 196.710938 183.199219 196.554688 C 183.980469 196.46875 184.605469 197.402344 184.761719 197.761719 C 184.761719 198.230469 184.695312 198.585938 184.625 198.785156 C 184.023438 198.71875 183.042969 198.496094 182.175781 198.296875 Z M 197.582031 198.964844 C 195.953125 199.386719 195.464844 199.1875 195.351562 199.078125 C 195.175781 198.808594 194.949219 197.78125 195.21875 197.136719 C 195.285156 196.957031 195.375 196.800781 195.796875 196.710938 C 195.976562 196.667969 196.109375 196.667969 196.15625 196.667969 C 196.199219 196.667969 196.199219 196.667969 196.199219 196.667969 C 196.402344 196.800781 196.78125 197.515625 197.023438 197.960938 C 197.179688 198.25 197.359375 198.585938 197.582031 198.964844 Z M 248.222656 212.007812 C 245.210938 217.050781 242.558594 219.636719 239.972656 222.15625 C 237.472656 224.585938 235.089844 226.90625 232.96875 230.941406 C 224.832031 246.394531 220.726562 244.789062 218.742188 244.03125 C 211.542969 241.242188 205.542969 234.664062 200.726562 229.378906 C 196.980469 225.277344 194.105469 222.15625 191.203125 221.152344 C 191.203125 220.972656 191.273438 220.796875 191.25 220.59375 C 190.648438 216.132812 190.757812 213.257812 191.71875 209.578125 C 191.71875 209.578125 191.71875 209.535156 191.71875 209.535156 C 195.664062 208.664062 199.699219 206.277344 203.757812 202.355469 C 204.027344 202.085938 204.585938 201.550781 204.917969 200.835938 C 205.074219 200.660156 205.207031 200.4375 205.320312 200.191406 C 205.363281 200.058594 205.453125 199.96875 205.699219 199.679688 C 206.949219 198.230469 207.949219 196.601562 207.484375 191.539062 C 207.035156 186.476562 201.351562 181.683594 196.78125 180.925781 C 192.988281 180.300781 191.496094 180.101562 187.503906 180.5 C 187.035156 180.546875 186.5 180.589844 185.921875 180.613281 C 183.691406 180.746094 181.171875 180.902344 179.34375 181.773438 C 175.148438 183.734375 168.929688 191.339844 172.765625 200.792969 C 172.988281 201.328125 173.386719 201.773438 173.902344 202.042969 C 174.101562 202.355469 174.371094 202.6875 174.683594 203 C 178.472656 207.035156 182.507812 209.3125 186.679688 209.800781 C 185.785156 213.949219 185.921875 217.273438 186.410156 221.0625 C 179.320312 222.421875 174.75 228.578125 170.644531 234.0625 C 168.839844 236.492188 167.121094 238.789062 165.339844 240.507812 C 160.632812 245.035156 156.484375 247.21875 153.964844 246.527344 C 151.824219 245.925781 150.597656 243.003906 149.976562 240.640625 C 148.257812 234.285156 143.21875 228.84375 138.355469 223.582031 C 133.917969 218.789062 129.347656 213.839844 127.789062 208.621094 C 126.605469 204.671875 125.492188 201.0625 124.398438 197.605469 C 121.609375 188.683594 119.203125 180.96875 117.039062 170.800781 C 116.550781 168.484375 119.714844 157.601562 121.433594 153.476562 C 123.214844 149.148438 122.523438 144.691406 121.832031 140.386719 C 121.609375 138.914062 121.386719 137.53125 121.253906 136.148438 C 120.5625 128.234375 123.527344 115.410156 129.035156 108.945312 C 134.367188 102.703125 148.101562 96.769531 156.375 95.832031 C 157.222656 95.746094 158.003906 95.699219 158.738281 95.699219 C 161.679688 95.699219 163.777344 96.367188 165.382812 96.902344 L 165.738281 97.015625 C 169.152344 98.109375 172.628906 98.128906 176.042969 98.128906 C 182.664062 98.085938 189.710938 97.214844 196.488281 96.300781 C 211.273438 94.316406 225.234375 92.445312 236.382812 99.492188 L 236.671875 99.667969 C 246.527344 105.890625 256.71875 112.335938 255.445312 146.429688 C 255.359375 148.835938 256.628906 151.890625 257.832031 154.835938 C 258.367188 156.128906 258.882812 157.332031 259.105469 158.160156 C 264.65625 177.894531 252.792969 204.292969 248.199219 211.988281 Z M 270.878906 121.074219 C 270.589844 121.878906 269.695312 122.660156 268.15625 123.484375 C 265.460938 124.910156 262.492188 125.78125 259.484375 126.09375 C 257.566406 113.292969 253.0625 106.402344 247.910156 101.742188 C 247.128906 98.84375 246.503906 95.386719 248.199219 93.691406 C 248.644531 93.246094 249.316406 92.867188 250.183594 92.554688 C 253.664062 91.351562 257.921875 91.953125 263.609375 94.429688 C 265.011719 95.054688 266.597656 95.789062 267.445312 96.925781 C 268.378906 98.175781 268.625 100.113281 268.828125 101.855469 L 270.476562 114.988281 C 270.476562 115.144531 270.5 115.300781 270.542969 115.457031 L 270.878906 118.175781 C 271.011719 119.179688 271.144531 120.316406 270.878906 121.074219 Z M 288.027344 119.292969 L 287.132812 119.402344 C 283.945312 119.828125 278.660156 120.496094 275.335938 114.363281 L 273.6875 101.253906 C 273.417969 99.042969 273.0625 96.28125 271.347656 94.003906 C 269.785156 91.910156 267.53125 90.816406 265.546875 89.945312 C 261.222656 88.050781 254.757812 85.800781 248.558594 87.941406 C 246.953125 88.496094 245.679688 89.253906 244.699219 90.238281 C 242.671875 92.289062 242.136719 94.941406 242.203125 97.417969 C 241.21875 96.769531 240.261719 96.144531 239.28125 95.542969 L 238.992188 95.367188 C 236.292969 93.671875 233.460938 92.445312 230.539062 91.550781 C 236.472656 85.308594 246.171875 77.660156 256.875 79.464844 C 260.417969 80.070312 263.941406 81.785156 267.199219 83.546875 C 272.082031 86.179688 277.078125 89.277344 280.554688 94.050781 C 285.484375 100.785156 286.886719 110.195312 288.136719 118.488281 C 288.179688 118.847656 288.226562 119.089844 288.226562 119.269531 C 288.136719 119.269531 288.070312 119.269531 288.027344 119.292969 Z M 288.027344 119.292969 " fill-opacity="1" fill-rule="nonzero"/></svg>