<?xml version="1.0" encoding="utf-8"?>
<svg xmlns="http://www.w3.org/2000/svg" version="1.1" viewBox="-5.0 -10.0 110.0 135.0">
  <path d="m11.363 57.625c0 1.1914 0.94922 2.1562 2.1211 2.1562s2.1211-0.96484 2.1211-2.1562-0.94922-2.1562-2.1211-2.1562c-1.168 0-2.1211 0.96875-2.1211 2.1562z"/>
  <path d="m18.332 58c0 1.1914 0.94922 2.1562 2.1211 2.1562s2.1211-0.96484 2.1211-2.1562-0.94922-2.1562-2.1211-2.1562-2.1211 0.96484-2.1211 2.1562z"/>
  <path d="m20.348 64.27c0 4.5586-6.7266 4.5586-6.7266 0 0-4.5547 6.7266-4.5547 6.7266 0"/>
  <path d="m7.9414 62.699c0 1.1367 0.90625 2.0586 2.0273 2.0586 1.1172 0 2.0273-0.92187 2.0273-2.0586s-0.90625-2.0586-2.0273-2.0586c-1.1211 0.003906-2.0273 0.92578-2.0273 2.0586z"/>
  <path d="m88.664 57.625c0 1.1914-0.94922 2.1562-2.1211 2.1562s-2.1211-0.96484-2.1211-2.1562 0.94922-2.1562 2.1211-2.1562 2.1211 0.96875 2.1211 2.1562z"/>
  <path d="m81.699 58c0 1.1914-0.94922 2.1562-2.1211 2.1562s-2.1211-0.96484-2.1211-2.1562 0.94922-2.1562 2.1211-2.1562 2.1211 0.96484 2.1211 2.1562z"/>
  <path d="m86.41 64.27c0 4.5586-6.7266 4.5586-6.7266 0 0-4.5547 6.7266-4.5547 6.7266 0"/>
  <path d="m92.09 62.699c0 1.1367-0.90625 2.0586-2.0273 2.0586-1.1172 0-2.0273-0.92187-2.0273-2.0586s0.90625-2.0586 2.0273-2.0586c1.1211 0.003906 2.0273 0.92578 2.0273 2.0586z"/>
  <path d="m54.57 59.652c0 4.1328-9.1094 4.1328-9.1094 0 0-4.1367 9.1094-4.1367 9.1094 0"/>
  <path d="m61.996 51.434c0 1.3516-1.0977 2.4492-2.4492 2.4492s-2.4492-1.0977-2.4492-2.4492c0-1.3516 1.0977-2.4492 2.4492-2.4492s2.4492 1.0938 2.4492 2.4492z"/>
  <path d="m42.934 51.434c0 1.3516-1.0977 2.4492-2.4492 2.4492s-2.4492-1.0977-2.4492-2.4492c0-1.3516 1.0977-2.4492 2.4492-2.4492 1.3555 0 2.4492 1.0938 2.4492 2.4492z"/>
  <path d="m92.426 57.547c-0.023437-3.1875-2.5938-5.7734-5.75-5.7734-1.4141 0-2.7617 0.53906-3.7969 1.4688-0.97266-0.71875-2.1562-1.1211-3.3906-1.1211-1.4648 0-2.7969 0.55859-3.8125 1.4727-0.97656-2.3672-2.6172-4.6055-4.918-6.6211-0.13281-1.0078-0.32422-1.9648-0.54297-2.8945 3.4336 1.0547 6.6797 1.5312 9.5977 1.5312 6.668 0 11.633-2.4414 13.254-5.8906 1.5859-3.3789-0.28125-7.0469-5-9.8086-11.68-6.8359-24.449-0.73047-27.52 0.9375-2.9688-1.543-6.4961-2.3633-10.535-2.3633-0.42969 0-0.84375 0.027344-1.2617 0.046875 3.7344-3.3555 9.8086-9.6641 8.7734-14.43-0.5-2.293-2.4844-3.875-5.9102-4.7031-7.1992-1.7383-13.648 0.21094-18.156 5.4961-5.8203 6.8242-7.0234 17.496-3.1523 27.367-0.46094 1.4688-0.81641 3.0352-1.0352 4.7148-2.3008 2.0156-3.9414 4.2539-4.9141 6.625-1.0156-0.91406-2.3477-1.4727-3.8125-1.4727-1.2344 0-2.418 0.40234-3.3906 1.1211-1.0352-0.92969-2.3789-1.4688-3.7969-1.4688-3.1562 0-5.7266 2.5859-5.75 5.7734-2.0391 0.91016-3.4102 2.9609-3.4102 5.3047 0 3.3438 2.7852 5.3281 5.7422 5.7383 0.89453 2.7188 3.9531 9.7734 12.535 13.906 0.21094 0.10156 0.42969 0.14844 0.64844 0.14844 0.55859 0 1.0938-0.3125 1.3516-0.85156 0.35938-0.74609 0.046875-1.6406-0.70312-2-9.2031-4.4258-11.145-12.602-11.219-12.945-0.15234-0.6875-0.76172-1.1797-1.4648-1.1797-1.5039 0-3.8945-0.76562-3.8945-2.8203 0-1.375 0.96484-2.5391 2.293-2.7656 0.40625-0.070313 0.76953-0.30469 0.99609-0.65234 0.22656-0.34375 0.30469-0.76953 0.20703-1.1719-0.058594-0.25391-0.089844-0.47266-0.089844-0.66797 0-1.5547 1.2344-2.8203 2.75-2.8203 0.97656 0 1.8867 0.55078 2.3789 1.4414 0.25 0.45703 0.72266 0.75 1.2422 0.77344 0.51953 0.03125 1.0156-0.22266 1.3086-0.65234 0.51562-0.75781 1.3594-1.2109 2.2578-1.2109 1.5156 0 2.75 1.2656 2.75 2.8203 0 0.11328 0.015625 0.22266 0.039063 0.33203-0.003907 0.15234-0.027344 0.30078-0.027344 0.44922 0 6.6914 4.3789 11.582 12.973 14.617-0.12109 0.10547-0.22266 0.23438-0.28125 0.39062-0.25781 0.6875-0.39062 1.3789-0.39062 2.0586 0 4.9766 6.3281 8.8789 14.406 8.8789s14.406-3.8984 14.406-8.8789c0-0.67969-0.13281-1.375-0.38672-2.0586-0.066407-0.17969-0.18359-0.32422-0.32813-0.43359 8.6328-3.0547 13.02-7.9297 13.02-14.574 0-0.15234-0.023438-0.30078-0.027344-0.45312 0.023438-0.10547 0.039062-0.21484 0.039062-0.32812 0-1.5547 1.2344-2.8203 2.75-2.8203 0.89844 0 1.7383 0.45312 2.2578 1.2109 0.29297 0.42969 0.76562 0.67188 1.3086 0.65234 0.51953-0.023438 0.99219-0.31641 1.2422-0.77344 0.49219-0.89062 1.4023-1.4414 2.3789-1.4414 1.5156 0 2.75 1.2656 2.75 2.8203 0 0.19531-0.027343 0.41016-0.089843 0.66797-0.09375 0.40234-0.019531 0.82812 0.21094 1.1719 0.22656 0.34375 0.58984 0.58203 0.99609 0.65234 1.3281 0.22656 2.293 1.3906 2.293 2.7656 0 2.0547-2.3906 2.8203-3.8945 2.8203-0.70313 0-1.3086 0.49219-1.4648 1.1719-0.078125 0.34375-2.0195 8.5195-11.223 12.945-0.74609 0.35938-1.0625 1.2539-0.70313 2 0.25781 0.53906 0.79297 0.85156 1.3516 0.85156 0.21875 0 0.4375-0.046875 0.64844-0.14844 8.582-4.1289 11.641-11.188 12.535-13.906 2.957-0.41016 5.7422-2.3906 5.7422-5.7383 0.019532-2.3438-1.3516-4.3906-3.3906-5.3047zm-42.41 21.711c-5.7305 0-10.754-2.2461-12.07-5.3594 2.0898 0.64062 4.3906 1.1875 6.9258 1.6328 0.21094 0.046875 0.45312 0.10938 0.71094 0.17578l0.17969 0.046875 0.007812-0.027344c0.98438 1.1953 2.5117 1.9805 4.2461 1.9805 1.6797 0 3.1641-0.74219 4.1523-1.875 0.29297-0.09375 0.58594-0.19531 0.88281-0.31641 2.5898-0.46094 4.9375-1.0234 7.0664-1.6836-1.2734 3.1484-6.3281 5.4258-12.102 5.4258zm-2.3789-6.5938v-4.1875c1.0312-0.14844 1.8203-0.43359 2.3789-0.71875 0.55469 0.28516 1.3516 0.57031 2.3789 0.71875v4.1914c0 1.125-1.0664 2.0391-2.3789 2.0391s-2.3789-0.91797-2.3789-2.043zm7.7578-0.27344v-3.9297c3.8438-0.54297 5.3789-3 5.4453-3.1094 0.42188-0.69922 0.19922-1.5977-0.49219-2.0312-0.6875-0.4375-1.6133-0.22656-2.0625 0.46094-0.039062 0.0625-1.0039 1.4844-3.5742 1.75-2.5742 0.26953-3.6289-0.61719-3.6406-0.625-0.55859-0.55078-1.4844-0.54688-2.0781-0.03125-0.042969 0.039062-1.0938 0.92969-3.6719 0.65625-2.5742-0.26562-3.5352-1.6914-3.5625-1.7266-0.42969-0.71094-1.3516-0.9375-2.0586-0.50781-0.71094 0.42969-0.9375 1.3516-0.50781 2.0586 0.066406 0.10938 1.6016 2.5664 5.4453 3.1094v3.9688c-12.152-2.2852-18.328-6.8906-18.328-13.707 0-3.5195 1.8477-6.9219 5.3438-9.8359l0.46094-0.38672 0.066407-0.59766c0.69141-6.1328 3.9258-16.418 17.836-16.418 13.906 0 17.145 10.289 17.836 16.418l0.066407 0.59766 0.46094 0.38672c3.4961 2.9141 5.3438 6.3164 5.3438 9.8359 0 6.7539-6.1758 11.348-18.328 13.664z"/>
</svg>