<svg xmlns="http://www.w3.org/2000/svg" xmlns:xlink="http://www.w3.org/1999/xlink" width="500" zoomAndPan="magnify" viewBox="0 0 375 374.999991" height="500" preserveAspectRatio="xMidYMid meet" version="1.0"><path fill="#000000" d="M 184.671875 138.09375 C 184.671875 139.261719 184.628906 140.429688 184.542969 141.589844 C 184.457031 142.753906 184.332031 143.90625 184.160156 145.054688 C 183.988281 146.199219 183.777344 147.332031 183.519531 148.449219 C 183.265625 149.566406 182.972656 150.667969 182.636719 151.746094 C 182.300781 152.824219 181.925781 153.878906 181.515625 154.910156 C 181.101562 155.941406 180.652344 156.941406 180.164062 157.914062 C 179.675781 158.882812 179.15625 159.820312 178.601562 160.726562 C 178.042969 161.628906 177.457031 162.492188 176.835938 163.320312 C 176.214844 164.144531 175.566406 164.929688 174.890625 165.667969 C 174.214844 166.410156 173.511719 167.105469 172.78125 167.753906 C 172.054688 168.402344 171.300781 169.003906 170.527344 169.554688 C 169.757812 170.105469 168.964844 170.605469 168.15625 171.050781 C 167.347656 171.5 166.523438 171.890625 165.683594 172.230469 C 164.84375 172.570312 163.996094 172.855469 163.136719 173.082031 C 162.277344 173.308594 161.410156 173.480469 160.539062 173.59375 C 159.667969 173.710938 158.792969 173.765625 157.914062 173.765625 C 157.039062 173.765625 156.164062 173.710938 155.292969 173.59375 C 154.421875 173.480469 153.554688 173.308594 152.695312 173.082031 C 151.835938 172.855469 150.988281 172.570312 150.148438 172.230469 C 149.308594 171.890625 148.484375 171.5 147.675781 171.050781 C 146.867188 170.605469 146.074219 170.105469 145.300781 169.554688 C 144.527344 169.003906 143.777344 168.402344 143.050781 167.753906 C 142.320312 167.105469 141.617188 166.410156 140.941406 165.667969 C 140.261719 164.929688 139.613281 164.144531 138.996094 163.320312 C 138.375 162.492188 137.789062 161.628906 137.230469 160.726562 C 136.675781 159.820312 136.152344 158.882812 135.667969 157.914062 C 135.179688 156.941406 134.730469 155.941406 134.316406 154.910156 C 133.902344 153.878906 133.53125 152.824219 133.195312 151.746094 C 132.859375 150.667969 132.5625 149.566406 132.308594 148.449219 C 132.054688 147.332031 131.84375 146.199219 131.671875 145.054688 C 131.5 143.90625 131.371094 142.753906 131.285156 141.589844 C 131.199219 140.429688 131.15625 139.261719 131.15625 138.09375 C 131.15625 136.925781 131.199219 135.761719 131.285156 134.597656 C 131.371094 133.433594 131.5 132.28125 131.671875 131.136719 C 131.84375 129.988281 132.054688 128.859375 132.308594 127.738281 C 132.5625 126.621094 132.859375 125.523438 133.195312 124.445312 C 133.53125 123.363281 133.902344 122.308594 134.316406 121.277344 C 134.730469 120.25 135.179688 119.246094 135.667969 118.277344 C 136.152344 117.304688 136.675781 116.367188 137.230469 115.464844 C 137.789062 114.5625 138.375 113.695312 138.996094 112.871094 C 139.613281 112.042969 140.261719 111.261719 140.941406 110.519531 C 141.617188 109.777344 142.320312 109.082031 143.050781 108.433594 C 143.777344 107.785156 144.527344 107.183594 145.300781 106.632812 C 146.074219 106.082031 146.867188 105.585938 147.675781 105.136719 C 148.484375 104.691406 149.308594 104.296875 150.148438 103.957031 C 150.988281 103.621094 151.835938 103.335938 152.695312 103.109375 C 153.554688 102.878906 154.421875 102.707031 155.292969 102.59375 C 156.164062 102.480469 157.039062 102.421875 157.914062 102.421875 C 158.792969 102.421875 159.667969 102.480469 160.539062 102.59375 C 161.410156 102.707031 162.277344 102.878906 163.136719 103.109375 C 163.996094 103.335938 164.84375 103.621094 165.683594 103.957031 C 166.523438 104.296875 167.347656 104.691406 168.15625 105.136719 C 168.964844 105.585938 169.757812 106.082031 170.527344 106.632812 C 171.300781 107.183594 172.054688 107.785156 172.78125 108.433594 C 173.511719 109.082031 174.214844 109.777344 174.890625 110.519531 C 175.566406 111.261719 176.214844 112.042969 176.835938 112.871094 C 177.457031 113.695312 178.042969 114.5625 178.601562 115.464844 C 179.15625 116.367188 179.675781 117.304688 180.164062 118.277344 C 180.652344 119.246094 181.101562 120.25 181.515625 121.277344 C 181.925781 122.308594 182.300781 123.363281 182.636719 124.445312 C 182.972656 125.523438 183.265625 126.621094 183.519531 127.738281 C 183.777344 128.859375 183.988281 129.988281 184.160156 131.136719 C 184.332031 132.28125 184.457031 133.433594 184.542969 134.597656 C 184.628906 135.761719 184.671875 136.925781 184.671875 138.09375 Z M 184.671875 138.09375 " fill-opacity="1" fill-rule="nonzero"/><path fill="#000000" d="M 241.789062 138.09375 C 241.789062 139.261719 241.746094 140.429688 241.660156 141.589844 C 241.574219 142.753906 241.445312 143.90625 241.273438 145.054688 C 241.101562 146.199219 240.890625 147.332031 240.636719 148.449219 C 240.382812 149.566406 240.085938 150.667969 239.75 151.746094 C 239.414062 152.824219 239.042969 153.878906 238.628906 154.910156 C 238.214844 155.941406 237.765625 156.941406 237.277344 157.914062 C 236.792969 158.882812 236.269531 159.820312 235.714844 160.726562 C 235.160156 161.628906 234.570312 162.492188 233.953125 163.320312 C 233.332031 164.144531 232.683594 164.929688 232.007812 165.667969 C 231.328125 166.410156 230.625 167.105469 229.898438 167.753906 C 229.167969 168.402344 228.417969 169.003906 227.644531 169.554688 C 226.871094 170.105469 226.082031 170.605469 225.273438 171.050781 C 224.460938 171.5 223.640625 171.890625 222.800781 172.230469 C 221.960938 172.570312 221.113281 172.855469 220.253906 173.082031 C 219.394531 173.308594 218.527344 173.480469 217.65625 173.59375 C 216.785156 173.710938 215.910156 173.765625 215.035156 173.765625 C 214.15625 173.765625 213.285156 173.710938 212.410156 173.59375 C 211.539062 173.480469 210.675781 173.308594 209.816406 173.082031 C 208.957031 172.855469 208.105469 172.570312 207.269531 172.230469 C 206.429688 171.890625 205.605469 171.5 204.796875 171.050781 C 203.988281 170.605469 203.195312 170.105469 202.421875 169.554688 C 201.648438 169.003906 200.898438 168.402344 200.171875 167.753906 C 199.441406 167.105469 198.738281 166.410156 198.0625 165.667969 C 197.386719 164.929688 196.738281 164.144531 196.117188 163.320312 C 195.496094 162.492188 194.910156 161.628906 194.355469 160.726562 C 193.796875 159.820312 193.277344 158.882812 192.789062 157.914062 C 192.304688 156.941406 191.851562 155.941406 191.441406 154.910156 C 191.027344 153.878906 190.652344 152.824219 190.316406 151.746094 C 189.984375 150.667969 189.6875 149.566406 189.433594 148.449219 C 189.179688 147.332031 188.964844 146.199219 188.796875 145.054688 C 188.625 143.90625 188.496094 142.753906 188.410156 141.589844 C 188.324219 140.429688 188.28125 139.261719 188.28125 138.09375 C 188.28125 136.925781 188.324219 135.761719 188.410156 134.597656 C 188.496094 133.433594 188.625 132.28125 188.796875 131.136719 C 188.964844 129.988281 189.179688 128.859375 189.433594 127.738281 C 189.6875 126.621094 189.984375 125.523438 190.316406 124.445312 C 190.652344 123.363281 191.027344 122.308594 191.441406 121.277344 C 191.851562 120.25 192.304688 119.246094 192.789062 118.277344 C 193.277344 117.304688 193.796875 116.367188 194.355469 115.464844 C 194.910156 114.5625 195.496094 113.695312 196.117188 112.871094 C 196.738281 112.042969 197.386719 111.261719 198.0625 110.519531 C 198.738281 109.777344 199.441406 109.082031 200.171875 108.433594 C 200.898438 107.785156 201.648438 107.183594 202.421875 106.632812 C 203.195312 106.082031 203.988281 105.585938 204.796875 105.136719 C 205.605469 104.691406 206.429688 104.296875 207.269531 103.957031 C 208.105469 103.621094 208.957031 103.335938 209.816406 103.109375 C 210.675781 102.878906 211.539062 102.707031 212.410156 102.59375 C 213.285156 102.480469 214.15625 102.421875 215.035156 102.421875 C 215.910156 102.421875 216.785156 102.480469 217.65625 102.59375 C 218.527344 102.707031 219.394531 102.878906 220.253906 103.109375 C 221.113281 103.335938 221.960938 103.621094 222.800781 103.957031 C 223.640625 104.296875 224.460938 104.691406 225.273438 105.136719 C 226.082031 105.585938 226.871094 106.082031 227.644531 106.632812 C 228.417969 107.183594 229.167969 107.785156 229.898438 108.433594 C 230.625 109.082031 231.328125 109.777344 232.007812 110.519531 C 232.683594 111.261719 233.332031 112.042969 233.953125 112.871094 C 234.570312 113.695312 235.160156 114.5625 235.714844 115.464844 C 236.269531 116.367188 236.792969 117.304688 237.277344 118.277344 C 237.765625 119.246094 238.214844 120.25 238.628906 121.277344 C 239.042969 122.308594 239.414062 123.363281 239.75 124.445312 C 240.085938 125.523438 240.382812 126.621094 240.636719 127.738281 C 240.890625 128.859375 241.101562 129.988281 241.273438 131.136719 C 241.445312 132.28125 241.574219 133.433594 241.660156 134.597656 C 241.746094 135.761719 241.789062 136.925781 241.789062 138.09375 Z M 241.789062 138.09375 " fill-opacity="1" fill-rule="nonzero"/><path fill="#000000" d="M 280.375 183.449219 C 280.375 184.359375 280.339844 185.265625 280.269531 186.171875 C 280.203125 187.078125 280.101562 187.976562 279.964844 188.871094 C 279.824219 189.761719 279.65625 190.644531 279.453125 191.515625 C 279.25 192.386719 279.011719 193.242188 278.746094 194.082031 C 278.476562 194.925781 278.175781 195.746094 277.847656 196.550781 C 277.515625 197.351562 277.15625 198.132812 276.765625 198.890625 C 276.378906 199.644531 275.960938 200.375 275.515625 201.078125 C 275.070312 201.78125 274.601562 202.457031 274.105469 203.101562 C 273.609375 203.742188 273.089844 204.355469 272.550781 204.933594 C 272.007812 205.507812 271.445312 206.050781 270.863281 206.558594 C 270.28125 207.0625 269.679688 207.53125 269.0625 207.960938 C 268.441406 208.386719 267.808594 208.777344 267.160156 209.125 C 266.515625 209.472656 265.855469 209.78125 265.183594 210.042969 C 264.515625 210.308594 263.835938 210.527344 263.148438 210.707031 C 262.460938 210.882812 261.765625 211.019531 261.070312 211.105469 C 260.371094 211.195312 259.671875 211.242188 258.972656 211.242188 C 258.269531 211.242188 257.570312 211.195312 256.875 211.105469 C 256.175781 211.019531 255.484375 210.882812 254.796875 210.707031 C 254.109375 210.527344 253.429688 210.308594 252.757812 210.042969 C 252.089844 209.78125 251.429688 209.472656 250.78125 209.125 C 250.132812 208.777344 249.5 208.386719 248.882812 207.960938 C 248.265625 207.53125 247.664062 207.0625 247.082031 206.558594 C 246.5 206.050781 245.9375 205.507812 245.394531 204.933594 C 244.851562 204.355469 244.332031 203.742188 243.839844 203.101562 C 243.34375 202.457031 242.871094 201.78125 242.425781 201.078125 C 241.984375 200.375 241.566406 199.644531 241.175781 198.890625 C 240.785156 198.132812 240.425781 197.351562 240.097656 196.550781 C 239.765625 195.746094 239.464844 194.925781 239.199219 194.082031 C 238.929688 193.242188 238.695312 192.386719 238.492188 191.515625 C 238.289062 190.644531 238.117188 189.761719 237.980469 188.871094 C 237.84375 187.976562 237.742188 187.078125 237.671875 186.171875 C 237.605469 185.265625 237.570312 184.359375 237.570312 183.449219 C 237.570312 182.539062 237.605469 181.628906 237.671875 180.722656 C 237.742188 179.816406 237.84375 178.917969 237.980469 178.027344 C 238.117188 177.132812 238.289062 176.25 238.492188 175.378906 C 238.695312 174.507812 238.929688 173.652344 239.199219 172.8125 C 239.464844 171.972656 239.765625 171.148438 240.097656 170.347656 C 240.425781 169.542969 240.785156 168.765625 241.175781 168.007812 C 241.566406 167.25 241.984375 166.519531 242.425781 165.816406 C 242.871094 165.113281 243.34375 164.4375 243.839844 163.796875 C 244.332031 163.152344 244.851562 162.542969 245.394531 161.964844 C 245.9375 161.386719 246.5 160.84375 247.082031 160.339844 C 247.664062 159.832031 248.265625 159.367188 248.882812 158.9375 C 249.5 158.507812 250.132812 158.117188 250.78125 157.769531 C 251.429688 157.421875 252.089844 157.117188 252.757812 156.851562 C 253.429688 156.585938 254.109375 156.367188 254.796875 156.1875 C 255.484375 156.011719 256.175781 155.878906 256.875 155.789062 C 257.570312 155.699219 258.269531 155.65625 258.972656 155.65625 C 259.671875 155.65625 260.371094 155.699219 261.070312 155.789062 C 261.765625 155.878906 262.460938 156.011719 263.148438 156.1875 C 263.835938 156.367188 264.515625 156.585938 265.183594 156.851562 C 265.855469 157.117188 266.515625 157.421875 267.160156 157.769531 C 267.808594 158.117188 268.441406 158.507812 269.0625 158.9375 C 269.679688 159.367188 270.28125 159.832031 270.863281 160.339844 C 271.445312 160.84375 272.007812 161.386719 272.550781 161.964844 C 273.089844 162.542969 273.609375 163.152344 274.105469 163.796875 C 274.601562 164.4375 275.070312 165.113281 275.515625 165.816406 C 275.960938 166.519531 276.378906 167.25 276.765625 168.007812 C 277.15625 168.765625 277.515625 169.542969 277.847656 170.347656 C 278.175781 171.148438 278.476562 171.972656 278.746094 172.8125 C 279.011719 173.652344 279.25 174.507812 279.453125 175.378906 C 279.65625 176.25 279.824219 177.132812 279.964844 178.027344 C 280.101562 178.917969 280.203125 179.816406 280.269531 180.722656 C 280.339844 181.628906 280.375 182.539062 280.375 183.449219 Z M 280.375 183.449219 " fill-opacity="1" fill-rule="nonzero"/><path fill="#000000" d="M 137.375 183.449219 C 137.375 184.359375 137.34375 185.265625 137.273438 186.171875 C 137.207031 187.078125 137.101562 187.976562 136.964844 188.871094 C 136.828125 189.761719 136.660156 190.644531 136.457031 191.515625 C 136.253906 192.386719 136.015625 193.242188 135.75 194.082031 C 135.480469 194.925781 135.179688 195.746094 134.851562 196.550781 C 134.519531 197.351562 134.160156 198.132812 133.769531 198.890625 C 133.382812 199.644531 132.964844 200.375 132.519531 201.078125 C 132.074219 201.78125 131.605469 202.457031 131.109375 203.101562 C 130.613281 203.742188 130.09375 204.355469 129.554688 204.933594 C 129.011719 205.507812 128.449219 206.050781 127.867188 206.558594 C 127.285156 207.0625 126.683594 207.53125 126.066406 207.960938 C 125.449219 208.386719 124.816406 208.777344 124.167969 209.125 C 123.519531 209.472656 122.859375 209.78125 122.191406 210.042969 C 121.519531 210.308594 120.839844 210.527344 120.152344 210.707031 C 119.464844 210.882812 118.773438 211.019531 118.078125 211.105469 C 117.378906 211.195312 116.679688 211.242188 115.980469 211.242188 C 115.277344 211.242188 114.578125 211.195312 113.882812 211.105469 C 113.183594 211.019531 112.492188 210.882812 111.804688 210.707031 C 111.117188 210.527344 110.4375 210.308594 109.769531 210.042969 C 109.097656 209.78125 108.4375 209.472656 107.789062 209.125 C 107.144531 208.777344 106.511719 208.386719 105.890625 207.960938 C 105.273438 207.53125 104.675781 207.0625 104.089844 206.558594 C 103.507812 206.050781 102.945312 205.507812 102.40625 204.933594 C 101.863281 204.355469 101.34375 203.742188 100.847656 203.101562 C 100.351562 202.457031 99.882812 201.78125 99.4375 201.078125 C 98.996094 200.375 98.578125 199.644531 98.1875 198.890625 C 97.796875 198.132812 97.4375 197.351562 97.109375 196.550781 C 96.777344 195.746094 96.480469 194.925781 96.210938 194.082031 C 95.941406 193.242188 95.707031 192.386719 95.503906 191.515625 C 95.300781 190.644531 95.128906 189.761719 94.992188 188.871094 C 94.855469 187.976562 94.753906 187.078125 94.683594 186.171875 C 94.617188 185.265625 94.582031 184.359375 94.582031 183.449219 C 94.582031 182.539062 94.617188 181.628906 94.683594 180.722656 C 94.753906 179.816406 94.855469 178.917969 94.992188 178.027344 C 95.128906 177.132812 95.300781 176.25 95.503906 175.378906 C 95.707031 174.507812 95.941406 173.652344 96.210938 172.8125 C 96.480469 171.972656 96.777344 171.148438 97.109375 170.347656 C 97.4375 169.542969 97.796875 168.765625 98.1875 168.007812 C 98.578125 167.25 98.996094 166.519531 99.4375 165.816406 C 99.882812 165.113281 100.351562 164.4375 100.847656 163.796875 C 101.34375 163.152344 101.863281 162.542969 102.40625 161.964844 C 102.945312 161.386719 103.507812 160.84375 104.089844 160.339844 C 104.675781 159.832031 105.273438 159.367188 105.890625 158.9375 C 106.511719 158.507812 107.144531 158.117188 107.789062 157.769531 C 108.4375 157.421875 109.097656 157.117188 109.769531 156.851562 C 110.4375 156.585938 111.117188 156.367188 111.804688 156.1875 C 112.492188 156.011719 113.183594 155.878906 113.882812 155.789062 C 114.578125 155.699219 115.277344 155.65625 115.980469 155.65625 C 116.679688 155.65625 117.378906 155.699219 118.078125 155.789062 C 118.773438 155.878906 119.464844 156.011719 120.152344 156.1875 C 120.839844 156.367188 121.519531 156.585938 122.191406 156.851562 C 122.859375 157.117188 123.519531 157.421875 124.167969 157.769531 C 124.816406 158.117188 125.449219 158.507812 126.066406 158.9375 C 126.683594 159.367188 127.285156 159.832031 127.867188 160.339844 C 128.449219 160.84375 129.011719 161.386719 129.554688 161.964844 C 130.09375 162.542969 130.613281 163.152344 131.109375 163.796875 C 131.605469 164.4375 132.074219 165.113281 132.519531 165.816406 C 132.964844 166.519531 133.382812 167.25 133.769531 168.007812 C 134.160156 168.765625 134.519531 169.542969 134.851562 170.347656 C 135.179688 171.148438 135.480469 171.972656 135.75 172.8125 C 136.015625 173.652344 136.253906 174.507812 136.457031 175.378906 C 136.660156 176.25 136.828125 177.132812 136.964844 178.027344 C 137.101562 178.917969 137.207031 179.816406 137.273438 180.722656 C 137.34375 181.628906 137.375 182.539062 137.375 183.449219 Z M 137.375 183.449219 " fill-opacity="1" fill-rule="nonzero"/><path fill="#000000" d="M 228.371094 205.074219 C 199.792969 177.089844 161.15625 194.824219 161.15625 194.824219 C 122.921875 218.082031 127.847656 252.375 127.847656 252.375 C 140.066406 288.839844 165.890625 264.402344 165.890625 264.402344 C 189.140625 243.636719 212.007812 267.152344 212.007812 267.152344 C 230.335938 280.164062 240.585938 265.582031 240.585938 265.582031 C 261.105469 238.96875 228.371094 205.074219 228.371094 205.074219 Z M 188.105469 199.664062 C 191.488281 199.664062 194.238281 202.414062 194.238281 205.808594 C 194.238281 209.195312 191.488281 211.945312 188.105469 211.945312 C 184.710938 211.945312 181.964844 209.195312 181.964844 205.808594 C 181.964844 202.414062 184.710938 199.664062 188.105469 199.664062 Z M 197.941406 245.261719 L 178.652344 245.261719 L 178.652344 239.90625 C 178.652344 239.90625 183.234375 240.621094 183.625 237.441406 L 183.625 223.722656 C 183.625 223.722656 183.234375 220.625 178.652344 220.765625 L 178.652344 215.9375 L 188.300781 214.082031 L 193.46875 214.082031 L 193.46875 237.441406 C 193.46875 237.441406 193.855469 239.707031 197.949219 240.097656 L 197.949219 245.261719 Z M 197.941406 245.261719 " fill-opacity="1" fill-rule="nonzero"/></svg>