<svg xmlns="http://www.w3.org/2000/svg" xmlns:xlink="http://www.w3.org/1999/xlink" width="500" zoomAndPan="magnify" viewBox="0 0 375 374.999991" height="500" preserveAspectRatio="xMidYMid meet" version="1.0"><path fill="#000000" d="M 116.488281 198.664062 L 130.074219 203.507812 C 130.570312 203.691406 131.089844 203.78125 131.625 203.78125 C 133.40625 203.78125 134.984375 202.765625 135.71875 201.25 L 143.765625 206.714844 C 141.738281 210.171875 142.394531 214.726562 145.554688 217.449219 C 147.089844 218.75 149.050781 219.472656 151.074219 219.472656 C 151.410156 219.472656 151.746094 219.449219 152.074219 219.414062 C 152.175781 221.683594 153.15625 223.910156 155.011719 225.511719 C 156.535156 226.804688 158.476562 227.519531 160.484375 227.519531 C 160.835938 227.519531 161.175781 227.496094 161.523438 227.453125 C 161.628906 229.71875 162.609375 231.941406 164.457031 233.535156 C 165.992188 234.835938 167.949219 235.558594 169.976562 235.558594 C 170.304688 235.558594 170.632812 235.535156 170.953125 235.5 C 171.054688 237.777344 172.035156 240.011719 173.90625 241.597656 C 175.429688 242.890625 177.371094 243.605469 179.378906 243.605469 C 181.890625 243.605469 184.269531 242.511719 185.894531 240.601562 L 188.714844 237.285156 L 189.425781 237.871094 C 190.960938 239.179688 192.875 239.878906 194.878906 239.878906 C 195.121094 239.878906 195.375 239.867188 195.625 239.847656 C 197.894531 239.652344 199.9375 238.59375 201.363281 236.875 C 202.398438 235.65625 202.996094 234.222656 203.234375 232.746094 C 204.25 233.164062 205.324219 233.398438 206.441406 233.398438 C 206.71875 233.398438 206.992188 233.386719 207.273438 233.355469 C 209.523438 233.140625 211.542969 232.070312 212.933594 230.371094 C 214.089844 229.011719 214.75 227.359375 214.886719 225.609375 C 215.480469 225.738281 216.082031 225.828125 216.703125 225.828125 C 216.949219 225.828125 217.195312 225.816406 217.445312 225.800781 C 219.695312 225.609375 221.738281 224.550781 223.210938 222.824219 C 224.464844 221.351562 225.089844 219.5625 225.175781 217.757812 C 225.617188 217.832031 226.066406 217.875 226.511719 217.875 C 228.9375 217.875 231.34375 216.839844 233.003906 214.84375 C 234.476562 213.117188 235.175781 210.914062 234.976562 208.636719 C 234.898438 207.773438 234.667969 206.953125 234.351562 206.175781 L 241.5 202.042969 C 242.359375 203.117188 243.679688 203.78125 245.097656 203.78125 C 245.621094 203.78125 246.140625 203.691406 246.636719 203.511719 L 260.273438 198.652344 C 262.632812 197.777344 263.871094 195.144531 263.023438 192.78125 L 248.410156 151.863281 C 247.761719 150.039062 246.035156 148.808594 244.121094 148.808594 C 243.585938 148.808594 243.058594 148.90625 242.582031 149.085938 L 228.902344 153.945312 C 227.761719 154.363281 226.851562 155.207031 226.34375 156.304688 C 225.832031 157.410156 225.785156 158.652344 226.195312 159.769531 L 226.648438 161.042969 L 214.179688 164.507812 C 210.367188 165.558594 206.957031 165.785156 203.105469 165.230469 L 187.679688 163.0625 C 184.730469 162.632812 181.898438 163.390625 179.484375 165.253906 L 178.433594 166.074219 L 176.414062 164.90625 C 174.722656 163.929688 173.011719 163.472656 171.015625 163.472656 L 158.53125 163.472656 C 156.714844 163.472656 155.269531 163.121094 153.664062 162.285156 L 150.257812 160.582031 L 150.539062 159.800781 C 150.960938 158.660156 150.910156 157.421875 150.394531 156.316406 C 149.875 155.199219 148.945312 154.359375 147.765625 153.941406 L 134.183594 149.097656 C 133.675781 148.910156 133.144531 148.816406 132.605469 148.816406 C 130.628906 148.816406 128.898438 150.070312 128.324219 151.863281 L 113.710938 192.785156 C 112.859375 195.175781 114.105469 197.816406 116.492188 198.664062 Z M 148.535156 213.972656 C 146.914062 212.570312 146.710938 210.101562 148.09375 208.476562 L 153.757812 201.773438 C 154.503906 200.910156 155.601562 200.414062 156.773438 200.414062 C 157.707031 200.414062 158.597656 200.742188 159.292969 201.332031 C 160.082031 202.003906 160.5625 202.945312 160.644531 203.996094 C 160.726562 205.046875 160.398438 206.0625 159.726562 206.851562 L 154.042969 213.53125 C 152.71875 215.097656 150.089844 215.285156 148.535156 213.972656 Z M 157.988281 222.03125 C 156.378906 220.640625 156.171875 218.105469 157.539062 216.5 L 163.21875 209.820312 C 163.953125 208.957031 165.042969 208.460938 166.195312 208.460938 C 167.132812 208.460938 168.035156 208.789062 168.738281 209.390625 C 169.527344 210.058594 170.003906 211 170.089844 212.03125 C 170.171875 213.066406 169.84375 214.074219 169.167969 214.867188 L 163.488281 221.546875 C 162.15625 223.125 159.527344 223.339844 157.988281 222.03125 Z M 167.4375 230.054688 C 165.828125 228.660156 165.621094 226.128906 166.988281 224.515625 L 172.667969 217.84375 C 173.402344 216.976562 174.492188 216.480469 175.644531 216.480469 C 176.574219 216.480469 177.484375 216.808594 178.1875 217.414062 C 178.976562 218.082031 179.453125 219.03125 179.539062 220.078125 C 179.621094 221.128906 179.292969 222.144531 178.617188 222.9375 L 172.9375 229.617188 C 171.617188 231.175781 168.984375 231.367188 167.4375 230.054688 Z M 182.394531 237.628906 C 181.054688 239.203125 178.4375 239.4375 176.875 238.097656 C 175.230469 236.707031 175.039062 234.226562 176.445312 232.578125 L 182.125 225.90625 C 182.871094 225.023438 183.976562 224.523438 185.148438 224.523438 C 186.066406 224.523438 186.957031 224.84375 187.648438 225.433594 C 189.292969 226.828125 189.484375 229.304688 188.082031 230.953125 Z M 244.097656 153.410156 L 258.710938 194.34375 L 245.097656 199.203125 L 245.101562 199.203125 L 245.089844 199.207031 L 244.769531 198.300781 C 244.726562 198.121094 244.667969 197.949219 244.582031 197.773438 L 231.859375 162.132812 C 231.847656 162.089844 231.847656 162.042969 231.835938 162 C 231.789062 161.832031 231.722656 161.675781 231.644531 161.527344 L 230.480469 158.273438 Z M 187.035156 167.609375 L 202.460938 169.777344 C 206.957031 170.429688 210.953125 170.171875 215.410156 168.933594 L 228.191406 165.378906 L 239.707031 197.78125 L 231.539062 202.503906 L 208.324219 182.949219 C 206.023438 181.042969 203.582031 179.835938 200.578125 179.132812 C 197.105469 178.398438 193.59375 177.65625 190.027344 176.910156 C 187.5 176.4375 185.101562 177.011719 183.082031 178.570312 L 175.765625 184.285156 C 172.257812 186.992188 167.449219 187.164062 163.828125 184.746094 C 163.441406 184.476562 163.382812 184.214844 163.375 184.113281 C 163.375 183.589844 163.585938 183.4375 163.746094 183.324219 L 180.027344 170.65625 C 180.105469 170.597656 180.191406 170.546875 180.253906 170.476562 L 182.292969 168.894531 C 183.738281 167.777344 185.277344 167.351562 187.035156 167.609375 Z M 151.574219 166.371094 C 153.785156 167.523438 155.992188 168.0625 158.53125 168.0625 L 171.015625 168.0625 C 172.1875 168.0625 173.144531 168.3125 174.117188 168.878906 L 174.527344 169.121094 L 161.027344 179.625 C 159.605469 180.617188 158.796875 182.253906 158.796875 184.203125 C 158.867188 185.941406 159.722656 187.464844 161.238281 188.527344 C 166.535156 192.074219 173.5 191.832031 178.578125 187.910156 L 185.894531 182.203125 C 186.871094 181.449219 187.953125 181.191406 189.140625 181.417969 C 192.652344 182.152344 196.160156 182.894531 199.582031 183.617188 C 201.851562 184.148438 203.648438 185.03125 205.386719 186.472656 L 229.066406 206.421875 C 229.847656 207.082031 230.332031 208.007812 230.421875 209.050781 C 230.511719 210.097656 230.195312 211.105469 229.507812 211.90625 C 228.15625 213.527344 225.648438 213.746094 224.042969 212.410156 L 222.316406 210.945312 C 222.277344 210.914062 222.253906 210.878906 222.21875 210.847656 C 222.183594 210.820312 222.140625 210.800781 222.105469 210.773438 L 217.792969 207.121094 C 216.824219 206.304688 215.378906 206.421875 214.5625 207.390625 C 213.742188 208.359375 213.863281 209.804688 214.832031 210.621094 L 219.347656 214.445312 C 220.90625 215.867188 221.089844 218.269531 219.730469 219.871094 C 219.054688 220.664062 218.109375 221.152344 217.070312 221.242188 C 216.042969 221.328125 215.035156 221.011719 214.238281 220.335938 L 206.957031 214.222656 C 205.984375 213.414062 204.539062 213.539062 203.726562 214.503906 C 202.914062 215.480469 203.039062 216.925781 204.007812 217.738281 L 208.882812 221.828125 C 208.921875 221.863281 208.953125 221.914062 208.996094 221.949219 C 209.777344 222.605469 210.261719 223.535156 210.351562 224.578125 C 210.441406 225.621094 210.125 226.632812 209.425781 227.449219 C 208.785156 228.230469 207.871094 228.710938 206.84375 228.8125 C 205.785156 228.914062 204.757812 228.597656 203.964844 227.933594 L 200.375 224.90625 L 197.597656 222.558594 C 196.625 221.738281 195.183594 221.863281 194.367188 222.832031 C 193.546875 223.800781 193.671875 225.246094 194.640625 226.0625 L 197.40625 228.394531 L 197.414062 228.398438 C 199.066406 229.804688 199.28125 232.28125 197.871094 233.9375 C 197.214844 234.71875 196.28125 235.203125 195.242188 235.292969 C 194.203125 235.382812 193.1875 235.066406 192.375 234.371094 L 191.683594 233.800781 C 194.597656 230.222656 194.152344 224.945312 190.625 221.953125 C 189.101562 220.664062 187.160156 219.945312 185.15625 219.945312 C 184.808594 219.945312 184.46875 219.972656 184.132812 220.011719 C 184.03125 217.742188 183.046875 215.515625 181.183594 213.933594 C 179.648438 212.628906 177.6875 211.90625 175.667969 211.90625 C 175.335938 211.90625 175.007812 211.929688 174.683594 211.964844 C 174.675781 211.871094 174.695312 211.78125 174.691406 211.6875 C 174.511719 209.429688 173.460938 207.375 171.738281 205.910156 C 170.203125 204.609375 168.246094 203.882812 166.21875 203.882812 C 165.886719 203.882812 165.554688 203.910156 165.234375 203.945312 C 165.226562 203.84375 165.246094 203.746094 165.238281 203.644531 C 165.0625 201.371094 164.015625 199.316406 162.289062 197.847656 C 160.765625 196.550781 158.8125 195.839844 156.800781 195.839844 C 154.296875 195.839844 151.929688 196.914062 150.292969 198.808594 L 146.621094 203.113281 L 137.339844 196.804688 L 148.699219 164.9375 Z M 132.613281 153.410156 L 146.222656 158.234375 L 131.621094 199.1875 L 118.035156 194.328125 Z M 166.804688 157.316406 L 195.457031 157.316406 C 196.066406 157.316406 196.648438 157.078125 197.082031 156.648438 L 204.597656 149.132812 C 206.597656 150.148438 208.84375 150.734375 211.242188 150.734375 C 219.363281 150.734375 225.976562 144.128906 225.976562 135.996094 C 225.976562 128.191406 219.871094 121.804688 212.191406 121.308594 L 212.183594 96.03125 C 212.183594 94.765625 211.15625 93.738281 209.890625 93.738281 L 166.804688 93.738281 C 165.539062 93.738281 164.511719 94.765625 164.511719 96.03125 L 164.511719 155.023438 C 164.511719 156.289062 165.539062 157.316406 166.804688 157.316406 Z M 221.382812 135.992188 C 221.382812 141.589844 216.832031 146.140625 211.234375 146.140625 C 205.644531 146.140625 201.085938 141.589844 201.085938 135.992188 C 201.085938 130.765625 205.058594 126.457031 210.136719 125.910156 C 210.175781 125.902344 210.21875 125.902344 210.253906 125.898438 C 210.578125 125.867188 210.898438 125.847656 211.226562 125.847656 C 216.832031 125.847656 221.382812 130.402344 221.382812 135.992188 Z M 169.097656 98.324219 L 207.597656 98.324219 L 207.597656 121.734375 C 204.574219 122.503906 201.917969 124.203125 199.964844 126.523438 C 199.902344 126.519531 199.851562 126.507812 199.789062 126.507812 L 176.949219 126.507812 C 175.679688 126.507812 174.652344 127.535156 174.652344 128.800781 C 174.652344 130.066406 175.679688 131.09375 176.949219 131.09375 L 197.359375 131.09375 C 197.058594 131.929688 196.839844 132.804688 196.703125 133.703125 L 176.949219 133.703125 C 175.683594 133.703125 174.652344 134.730469 174.652344 136 C 174.652344 137.265625 175.683594 138.292969 176.949219 138.292969 L 196.695312 138.292969 C 197.191406 141.441406 198.667969 144.257812 200.824219 146.414062 L 194.503906 152.734375 L 169.097656 152.730469 Z M 174.652344 107.164062 C 174.652344 105.898438 175.679688 104.871094 176.949219 104.871094 L 199.789062 104.871094 C 201.058594 104.871094 202.085938 105.898438 202.085938 107.164062 C 202.085938 108.429688 201.058594 109.457031 199.789062 109.457031 L 176.949219 109.457031 C 175.679688 109.457031 174.652344 108.4375 174.652344 107.164062 Z M 174.652344 114.363281 C 174.652344 113.097656 175.679688 112.070312 176.949219 112.070312 L 199.789062 112.070312 C 201.058594 112.070312 202.085938 113.097656 202.085938 114.363281 C 202.085938 115.628906 201.058594 116.65625 199.789062 116.65625 L 176.949219 116.65625 C 175.679688 116.65625 174.652344 115.628906 174.652344 114.363281 Z M 174.652344 121.601562 C 174.652344 120.335938 175.679688 119.308594 176.949219 119.308594 L 199.789062 119.308594 C 201.058594 119.308594 202.085938 120.335938 202.085938 121.601562 C 202.085938 122.867188 201.058594 123.894531 199.789062 123.894531 L 176.949219 123.894531 C 175.679688 123.894531 174.652344 122.867188 174.652344 121.601562 Z M 189.515625 143.1875 C 189.515625 144.457031 188.488281 145.484375 187.222656 145.484375 L 176.949219 145.484375 C 175.679688 145.484375 174.652344 144.457031 174.652344 143.1875 C 174.652344 141.921875 175.679688 140.894531 176.949219 140.894531 L 187.222656 140.894531 C 188.488281 140.894531 189.515625 141.921875 189.515625 143.1875 Z M 210.117188 136.351562 L 215.734375 130.765625 C 216.628906 129.867188 218.082031 129.875 218.976562 130.777344 C 219.871094 131.679688 219.867188 133.128906 218.964844 134.019531 L 211.726562 141.21875 C 211.277344 141.660156 210.691406 141.886719 210.105469 141.886719 C 209.519531 141.886719 208.929688 141.667969 208.480469 141.21875 L 203.542969 136.277344 C 202.644531 135.382812 202.644531 133.929688 203.542969 133.035156 C 204.4375 132.136719 205.890625 132.136719 206.785156 133.035156 Z M 210.117188 136.351562 " fill-opacity="1" fill-rule="nonzero"/></svg>