<svg xmlns="http://www.w3.org/2000/svg" xmlns:xlink="http://www.w3.org/1999/xlink" width="500" zoomAndPan="magnify" viewBox="0 0 375 374.999991" height="500" preserveAspectRatio="xMidYMid meet" version="1.0"><path fill="#000000" d="M 290.75 97.730469 C 285.816406 104.535156 270.078125 107.988281 262.726562 111.042969 C 255.257812 113.398438 251.035156 122.140625 253.925781 129.398438 C 260.148438 143.882812 259.261719 163.300781 259.191406 178.878906 C 259.191406 188.835938 257.632812 198.730469 254.578125 208.207031 C 253.601562 211.03125 253.042969 213.886719 253.054688 217.03125 C 253.054688 223.640625 255.59375 229.816406 260.242188 234.464844 C 260.933594 235.152344 261.839844 235.515625 262.820312 235.515625 C 262.859375 235.515625 266.890625 235.554688 271.101562 237.1875 C 274.878906 238.640625 277.53125 240.78125 279.164062 243.617188 L 255.632812 243.617188 L 242.773438 223.058594 C 248.105469 196.945312 229.871094 183.027344 197.449219 191.464844 C 195.488281 191.9375 194.292969 193.898438 194.726562 195.859375 C 195.199219 197.785156 197.160156 199.019531 199.121094 198.546875 C 225.53125 191.898438 240.160156 200.105469 235.621094 221.679688 L 235.621094 221.714844 C 235.511719 222.335938 235.402344 222.660156 235.402344 222.695312 C 235.414062 226.289062 234.539062 230.710938 237.21875 232.910156 C 237.699219 233.359375 238.148438 233.839844 238.5625 234.355469 C 243.285156 240.128906 241.867188 247.648438 241.792969 247.972656 C 241.46875 249.644531 239.976562 250.878906 238.234375 250.878906 L 179.835938 250.878906 C 179.148438 250.878906 178.476562 250.6875 177.890625 250.320312 L 153.324219 234.972656 C 153.109375 234.828125 152.890625 234.644531 152.671875 234.464844 C 152.417969 234.171875 126.125 207.117188 155.503906 171.199219 C 157.410156 168.75 161.644531 169.917969 161.933594 173.050781 C 161.96875 173.269531 164.074219 191.101562 168.832031 205.445312 L 203.804688 135.136719 C 216.359375 137.191406 229.339844 133.441406 232.277344 125.910156 C 238.816406 112.875 235.800781 82.222656 235.691406 80.914062 C 235.210938 76.226562 227.976562 76.898438 228.464844 81.640625 C 229.300781 89.886719 230.425781 113.382812 225.777344 122.679688 C 223.273438 127.726562 215.644531 128.5625 209.726562 128.34375 L 209.582031 128.34375 C 209.507812 128.308594 209.398438 128.308594 209.289062 128.34375 C 206.855469 128.199219 204.605469 127.945312 202.824219 127.65625 L 216.664062 77.898438 C 226.101562 66.722656 243.675781 63.070312 256.539062 70.457031 C 261.84375 74.136719 268.683594 82.230469 275.515625 81.824219 C 275.515625 81.824219 282.578125 81.824219 282.578125 81.824219 C 286.9375 81.859375 290.824219 85.199219 291.839844 89.777344 C 292.644531 92.445312 292.65625 95.683594 290.75 97.730469 Z M 290.75 97.730469 " fill-opacity="1" fill-rule="nonzero"/><path fill="#000000" d="M 143.449219 172.761719 C 142.589844 172.761719 141.726562 172.457031 141.035156 171.84375 C 136.90625 168.171875 133.199219 164.246094 130.019531 160.183594 C 118.925781 145.929688 113.304688 128.828125 113.304688 109.351562 L 113.304688 62.683594 C 113.304688 61.25 114.152344 59.949219 115.460938 59.363281 L 174.148438 33.289062 C 175.089844 32.871094 176.160156 32.871094 177.101562 33.289062 L 218.210938 51.554688 C 220.042969 52.371094 220.871094 54.515625 220.054688 56.351562 C 219.238281 58.183594 217.097656 59.007812 215.261719 58.195312 L 175.625 40.582031 L 120.566406 65.042969 L 120.566406 109.351562 C 120.535156 132.496094 129.257812 151.820312 145.863281 166.417969 C 148.378906 168.492188 146.652344 172.886719 143.449219 172.761719 Z M 143.449219 172.761719 " fill-opacity="1" fill-rule="nonzero"/></svg>