<?xml version="1.0" encoding="utf-8"?>
<svg xmlns="http://www.w3.org/2000/svg" version="1.1" viewBox="-5.0 -10.0 110.0 135.0">
  <path d="m25.094 57.344c0.53516-0.64844 1.3477-1.0664 2.2539-1.0664s1.7148 0.41797 2.25 1.0664c0.55078 0.66406 1.5352 0.76172 2.1992 0.21484 0.66797-0.55078 0.76172-1.5352 0.21484-2.1992-1.1094-1.3477-2.7891-2.207-4.6641-2.207-1.8789 0-3.5586 0.85938-4.668 2.207-0.54688 0.66406-0.45313 1.6484 0.21484 2.1992 0.66406 0.54688 1.6484 0.44922 2.1992-0.21484z" fill-rule="evenodd"/>
  <path d="m38.531 57.344c0.53516-0.64844 1.3477-1.0664 2.2539-1.0664s1.7188 0.41797 2.2539 1.0664c0.54688 0.66406 1.5312 0.76172 2.1992 0.21484 0.66406-0.55078 0.76172-1.5352 0.21094-2.1992-1.1094-1.3477-2.7852-2.207-4.6641-2.207s-3.5586 0.85938-4.6641 2.207c-0.55078 0.66406-0.45312 1.6484 0.21094 2.1992 0.66797 0.54688 1.6523 0.44922 2.1992-0.21484z" fill-rule="evenodd"/>
  <path d="m23.617 43.117-1.9258 0.25781c-4.7109 0.63672-8.8438 3.4609-11.148 7.6172-1.6914 3.0586-3.8438 6.9375-5.9414 10.73-1.6289 2.9375-1.3086 6.5664 0.8125 9.168 1.6875 2.0703 4.2461 3.1602 6.832 3.0117-0.027344 0.16406-0.039063 0.26953-0.039063 0.31641 0 2.8828 1.043 5.5234 2.7695 7.5664-1.3789 2.6094-2.4258 6.625-2.0625 13.609 0.046876 0.83203 0.73438 1.4805 1.5625 1.4805h38.703l0.074218-0.003906c0.79688-0.035156 1.4414-0.67188 1.4844-1.4766 0.35156-6.6992-0.60156-10.656-1.8867-13.266 1.9062-2.0859 3.0742-4.8633 3.0742-7.9102 0-0.046875-0.015625-0.15625-0.042969-0.32422 2.6289 0.19141 5.2422-0.89844 6.957-3.0039 2.1211-2.6016 2.4453-6.2305 0.81641-9.168-2.1016-3.793-4.25-7.6719-5.9453-10.73-2.3047-4.1562-6.4375-6.9805-11.148-7.6172l-1.9492-0.26172c-2.9336-2.1484-6.5469-3.3945-10.438-3.3945h-0.1875c-3.8477 0.015625-7.4414 1.2656-10.371 3.3984zm-6.2188 40.832c-0.91797 2.0742-1.5312 5.0898-1.418 9.8008h35.691c0.11328-4.5234-0.44922-7.4883-1.3164-9.5586-1.7852 1.1016-3.8906 1.7383-6.1406 1.7383-0.46875 0-0.92969-0.027344-1.3789-0.078126-1.4531 3.4414-4.8594 5.8633-8.8281 5.8633s-7.3711-2.4141-8.8242-5.8516c-0.41406 0.046875-0.83984 0.066407-1.2695 0.066407-2.4062 0-4.6523-0.73047-6.5156-1.9805zm22.359 1.1055c-2.4023-0.99219-4.4062-2.7617-5.6914-4.9922-1.3086 2.2617-3.3477 4.0469-5.793 5.0312 1.0703 2.0742 3.2344 3.4961 5.7344 3.4961 2.5117 0 4.6875-1.4375 5.75-3.5352zm-4.0234-9.4844c0.64844 4.0977 4.1992 7.2344 8.4805 7.2344 4.7383 0 8.5859-3.8438 8.5859-8.5859 0-0.56641-2.2969-10.465-4.2656-19.188-0.007812-0.023438-0.011718-0.050781-0.015625-0.078125-1.2188-7.0234-7.2148-12.109-14.344-12.109h-0.17578c-7.082 0.027344-13.133 5.1328-14.34 12.117-0.007812 0.03125-0.011718 0.058593-0.019531 0.085937-2.0117 8.7109-4.3086 18.605-4.3086 19.172 0 4.7422 3.8477 8.5859 8.582 8.5859 4.2812 0 7.8359-3.1367 8.4844-7.2344-2.8594-0.74219-4.9688-3.3398-4.9688-6.4258 0-3.6641 2.9727-6.6367 6.6367-6.6367 3.6602 0 6.6367 2.9727 6.6367 6.6367 0 3.0859-2.1133 5.6836-4.9688 6.4258zm-1.668-9.9375c1.9375 0 3.5117 1.5742 3.5117 3.5117 0 1.9414-1.5742 3.5117-3.5117 3.5117s-3.5117-1.5703-3.5117-3.5117c0-1.9375 1.5742-3.5117 3.5117-3.5117zm14.441-18.594c1.5273 2.125 2.6016 4.6094 3.082 7.3398 1.3359 5.918 2.7852 12.359 3.625 16.254 1.9102 0.48828 3.9453-0.17187 5.1992-1.7188 1.3164-1.6094 1.5156-3.8594 0.50781-5.6758l-5.9453-10.73c-1.4258-2.5781-3.7422-4.5078-6.4688-5.4688zm-28.828 0.027344c-2.6953 0.96484-4.9844 2.8828-6.4023 5.4414l-5.9453 10.73c-1.0078 1.8164-0.80859 4.0664 0.50391 5.6758 1.2305 1.5117 3.2031 2.1758 5.0781 1.75 0.83984-3.8906 2.3008-10.344 3.668-16.25 0.47656-2.7344 1.5625-5.2227 3.0977-7.3477z" fill-rule="evenodd"/>
  <path d="m69.375 81.316c-4.6016 1.9922-7.8164 6.5742-7.8164 11.906v2.0664c0 1.4688 1.5625 1.5859 1.5625 1.5859h24.465s1.5625-0.11719 1.5625-1.5859v-2.0664c0-5.332-3.2188-9.9141-7.8164-11.906 2.2734-1.7773 3.7383-4.5508 3.7383-7.6562 0-5.3633-4.3555-9.7188-9.7188-9.7188-5.3594 0-9.7148 4.3555-9.7148 9.7188 0 3.1055 1.4648 5.8789 3.7383 7.6562zm5.1602 2.0586h1.6367c5.4414 0 9.8516 4.4102 9.8516 9.8477v0.52734h-21.34v-0.52734c0-5.4375 4.4102-9.8477 9.8516-9.8477zm0.81641-16.309c3.6406 0 6.5938 2.9531 6.5938 6.5938 0 3.6367-2.9531 6.5898-6.5938 6.5898-3.6367 0-6.5898-2.9531-6.5898-6.5898 0-3.6406 2.9531-6.5938 6.5898-6.5938z" fill-rule="evenodd"/>
  <path d="m90.102 43.652h1.6406c2.5898 0 4.6875-2.0977 4.6875-4.6875v-31.152c0-2.5898-2.0977-4.6875-4.6875-4.6875h-40.852c-2.5859 0-4.6875 2.0977-4.6875 4.6875v31.152c0 2.5898 2.1016 4.6875 4.6875 4.6875h23.113v15.582c0 0.66406 0.41797 1.2539 1.043 1.4727 0.625 0.22266 1.3242 0.023438 1.7383-0.49219zm-0.74219-3.125h2.3828c0.86328 0 1.5625-0.69922 1.5625-1.5625v-31.152c0-0.86328-0.69922-1.5625-1.5625-1.5625h-40.852c-0.85938 0-1.5625 0.69922-1.5625 1.5625v31.152c0 0.86328 0.70312 1.5625 1.5625 1.5625h24.676c0.86328 0 1.5625 0.69922 1.5625 1.5625v12.707l11.008-13.688c0.30859-0.38281 0.76562-0.58203 1.2227-0.58203z" fill-rule="evenodd"/>
  <path d="m71.316 13.148c-1.5703-1.5078-3.6641-2.3516-5.8477-2.3516-2.2383 0-4.3906 0.89062-5.9727 2.4727l-0.011719 0.011719c-1.5859 1.582-2.4766 3.7344-2.4727 5.9727-0.003907 2.2422 0.88672 4.3906 2.4727 5.9766 4.5781 4.5781 10.727 10.727 10.727 10.727 0.61328 0.61328 1.6016 0.61328 2.2109 0l10.73-10.727c1.582-1.5859 2.4766-3.7344 2.4727-5.9766 0.003906-2.2383-0.89062-4.3906-2.4727-5.9727l-0.011719-0.011719c-1.582-1.582-3.7344-2.4727-5.9727-2.4727-2.1836 0-4.2773 0.84375-5.8516 2.3516zm0 3.7695c0.003906 0 0.55469 0.09375 1.1172-0.46875l0.97266-0.96875c0.99609-1 2.3477-1.5586 3.7617-1.5586 1.4102 0 2.7656 0.55859 3.7617 1.5586 0.003906 0.003906 0.011718 0.011719 0.011718 0.011719 1 1 1.5586 2.3516 1.5586 3.7617 0 1.4141-0.55859 2.7656-1.5586 3.7656l-9.625 9.6211-9.6211-9.6211c-1-1-1.5625-2.3516-1.5625-3.7656 0-1.4102 0.5625-2.7617 1.5625-3.7617l0.011719-0.011719c0.99609-1 2.3516-1.5586 3.7617-1.5586s2.7656 0.55859 3.7617 1.5586l0.96875 0.96875c0.56641 0.5625 1.1133 0.46875 1.1172 0.46875z" fill-rule="evenodd"/>
</svg>