<?xml version="1.0" encoding="utf-8"?>
<svg xmlns="http://www.w3.org/2000/svg" data-name="Layer 1" viewBox="0 0 64 80" x="0px" y="0px">
  <path d="M56.25,8.07A61.06,61.06,0,0,1,47.5,7a46.06,46.06,0,0,1-8.6-2.54,31.19,31.19,0,0,1-5-2.59L32,.62,30.18,1.81l-.55.35c-3.15,2-10.18,5.3-21.88,5.91l-3.61.18,1.41,9.52,1,6.84L8.89,40.34c.68,4.54,3.67,9.16,8.89,13.74a66.59,66.59,0,0,0,12.69,8.51l1.53.79,1.52-.8a74.34,74.34,0,0,0,9.9-6.32,43.78,43.78,0,0,0,7.32-6.88,18.06,18.06,0,0,0,4.37-9l2.33-15.76,1-6.84,1.41-9.52Zm-1.12,9.7-1,6.84L51.86,39.86V40a14.89,14.89,0,0,1-3.65,7.34,40.8,40.8,0,0,1-6.77,6.36,70.43,70.43,0,0,1-9.44,6,63.4,63.4,0,0,1-12-8.06c-4.62-4.06-7.25-8-7.81-11.75L9.88,24.61l-1-6.84-.95-6.42C20.28,10.71,27.84,7.13,31.36,5l.63-.4.11.07A33.81,33.81,0,0,0,37.65,7.5a49.35,49.35,0,0,0,9.21,2.74,64.78,64.78,0,0,0,9.22,1.11Z"/>
  <path d="M46.23,13.46a52.62,52.62,0,0,1-9.84-2.92A39.15,39.15,0,0,1,32,8.4c-3.66,2.07-10.32,4.94-20.29,6l3.7,25c.44,2.91,2.76,6.29,6.73,9.76A58.45,58.45,0,0,0,32,55.93,66.16,66.16,0,0,0,39.43,51a37.08,37.08,0,0,0,6.23-5.83,12.12,12.12,0,0,0,2.93-5.65l0-.18,3.7-25Q49.16,14,46.23,13.46ZM33.5,22.94c1.1-2.47,3.57-4.53,5.56-3.64s2.75,3.67,2.16,6.3c-.65,2.89-3.52,4.42-5.51,3.53A4.82,4.82,0,0,1,33.5,22.94ZM27.15,17.8c2.19,0,4,2.24,4.54,4.88.58,2.91-1.43,5.47-3.61,5.47a4.83,4.83,0,0,1-4.53-4.77C23.55,20.69,25,17.8,27.15,17.8ZM15.92,29.93c-.73-2.6-.13-5.76,2-6.34s4.46,1.08,5.68,3.48c1.34,2.65.1,5.65-2,6.23A4.81,4.81,0,0,1,15.92,29.93ZM34,46.14c-5.06,1.33-11.45-.82-12.75-5.5s3.91-10.23,9-11.32c3.65-.77,7.73,1.35,10,5.85S41.76,44.09,34,46.14Zm13-12.6c-1.62,2.15-4.57,2.33-5.89.85a4.39,4.39,0,0,1,.51-6c1.83-1.62,4.65-2.4,6-.92S48.48,31.59,47,33.54Z"/>
</svg>